# Blender 4.1.1
# www.blender.org
mtllib Player.mtl
o Cube
v 0.649465 7.372422 1.106116
v 1.326730 6.584896 -0.081555
v -0.536229 6.331564 1.120155
v 0.141037 5.544039 -0.067517
v -0.141037 8.258914 0.067517
v 0.536229 7.471388 -1.120155
v -1.326730 7.218057 0.081555
v -0.649465 6.430531 -1.106116
v 0.000000 2.677341 0.000000
v -0.751658 3.415518 0.928232
v -1.115076 3.415518 -0.428031
v 0.062510 3.415524 -1.192771
v 1.153709 3.415518 -0.309129
v 0.650515 3.415518 1.001717
v -1.153708 4.609944 0.309129
v -0.650514 4.609943 -1.001716
v 0.751659 4.609943 -0.928232
v 1.115076 4.609944 0.428031
v -0.062510 4.609939 1.192771
v 0.000000 5.348122 0.000000
v -0.655420 2.876775 -0.251588
v -0.441811 2.876775 0.545597
v -1.097237 3.310666 0.294011
v -0.059451 3.310668 1.134391
v 0.382360 2.876775 0.588790
v 0.036743 2.876779 -0.701092
v -0.618680 3.310668 -0.952686
v 0.678128 2.876775 -0.181700
v 0.714873 3.310668 -0.882798
v 1.060494 3.310666 0.407092
v -0.478555 4.012731 1.246696
v 0.345619 4.012731 1.289890
v -1.333560 4.012731 -0.069889
v -1.119952 4.012731 0.727306
v -0.345619 4.012731 -1.289889
v -1.037793 4.012731 -0.840389
v 1.119952 4.012731 -0.727306
v 0.478555 4.012731 -1.246696
v 1.037793 4.012731 0.840389
v 1.333560 4.012731 0.069889
v -0.714873 4.714794 0.882798
v -1.060494 4.714796 -0.407092
v 0.059451 4.714794 -1.134390
v 1.097237 4.714796 -0.294011
v 0.618680 4.714794 0.952686
v -0.678128 5.148686 0.181700
v -0.036743 5.148683 0.701092
v -0.382360 5.148686 -0.588790
v 0.441811 5.148686 -0.545597
v 0.655420 5.148687 0.251588
v -4.440066 3.003948 0.008860
v -2.276334 4.904694 -0.831040
v -4.014802 2.446902 -0.156215
v -1.851070 4.347647 -0.996115
v -4.179523 3.003948 0.680066
v -2.015791 4.904694 -0.159834
v -3.754259 2.446902 0.514991
v -1.590527 4.347647 -0.324909
v 3.586837 3.003948 1.445740
v 2.081927 4.904694 -0.321296
v 3.291059 2.446901 1.098444
v 1.786150 4.347647 -0.668592
v 4.134985 3.003948 0.978906
v 2.630075 4.904694 -0.788130
v 3.839207 2.446901 0.631609
v 2.334297 4.347647 -1.135426
vn -0.4292 0.4991 0.7527
vn -0.7515 -0.6597 0.0089
vn -0.5010 0.5619 -0.6583
vn 0.4292 -0.4991 -0.7527
vn 0.5010 -0.5619 0.6583
vn 0.7515 0.6597 -0.0089
vn -0.3200 -0.9435 0.0857
vn -0.3043 -0.6617 0.6852
vn -0.1804 -0.9435 -0.2779
vn 0.2085 -0.9435 -0.2575
vn 0.3093 -0.9435 0.1187
vn -0.3150 -0.3304 0.8897
vn -0.9435 -0.3304 -0.0247
vn -0.2681 -0.3304 -0.9050
vn 0.7778 -0.3304 -0.5346
vn 0.7488 -0.3304 0.5746
vn -0.6243 -0.1256 0.7710
vn -0.9262 -0.1256 -0.3555
vn 0.0519 -0.1256 -0.9907
vn 0.9583 -0.1256 -0.2568
vn 0.5403 -0.1256 0.8320
vn -0.6490 0.6617 0.3755
vn -0.5577 0.6617 -0.5012
vn 0.3043 0.6617 -0.6852
vn 0.7457 0.6617 0.0777
vn 0.1566 0.6617 0.7332
vn 0.1804 0.9435 0.2779
vn 0.3306 0.7947 0.5091
vn 0.6062 0.6617 0.4413
vn 0.3200 0.9435 -0.0858
vn 0.5864 0.7947 -0.1571
vn 0.6070 0.6617 -0.4401
vn 0.0173 0.9435 -0.3309
vn 0.0318 0.7947 -0.6062
vn -0.2310 0.6617 -0.7133
vn -0.3093 0.9435 -0.1187
vn -0.5667 0.7947 -0.2176
vn -0.7498 0.6617 -0.0007
vn -0.2085 0.9435 0.2575
vn -0.3820 0.7947 0.4718
vn -0.2324 0.6617 0.7129
vn 0.2681 0.3304 0.9050
vn 0.5350 0.1876 0.8238
vn 0.7177 0.3304 0.6130
vn 0.9435 0.3304 0.0247
vn 0.9488 0.1876 -0.2542
vn 0.8048 0.3304 -0.4931
vn 0.3150 0.3304 -0.8897
vn 0.0514 0.1876 -0.9809
vn -0.2203 0.3304 -0.9178
vn -0.7488 0.3304 -0.5746
vn -0.9170 0.1876 -0.3520
vn -0.9409 0.3304 -0.0741
vn -0.7778 0.3304 0.5346
vn -0.6181 0.1876 0.7634
vn -0.3612 0.3304 0.8720
vn 0.9262 0.1256 0.3555
vn 0.9170 -0.1876 0.3520
vn 0.9409 -0.3304 0.0741
vn 0.6243 0.1256 -0.7710
vn 0.6181 -0.1876 -0.7634
vn 0.3612 -0.3304 -0.8720
vn -0.5403 0.1256 -0.8320
vn -0.5350 -0.1876 -0.8238
vn -0.7177 -0.3304 -0.6130
vn -0.9583 0.1256 0.2568
vn -0.9488 -0.1876 0.2542
vn -0.8048 -0.3304 0.4931
vn -0.0519 0.1256 0.9907
vn -0.0514 -0.1876 0.9809
vn 0.2203 -0.3304 0.9178
vn 0.5577 -0.6617 0.5012
vn 0.5667 -0.7947 0.2176
vn 0.7498 -0.6617 0.0007
vn 0.6490 -0.6617 -0.3755
vn 0.3820 -0.7947 -0.4718
vn 0.2324 -0.6617 -0.7129
vn -0.1566 -0.6617 -0.7332
vn -0.3306 -0.7947 -0.5091
vn -0.6062 -0.6617 -0.4413
vn 0.2310 -0.6617 0.7133
vn -0.0318 -0.7947 0.6062
vn -0.0173 -0.9435 0.3309
vn -0.7457 -0.6617 -0.0777
vn -0.5864 -0.7947 0.1571
vn -0.6070 -0.6617 0.4401
vn -0.3619 -0.0000 -0.9322
vn 0.5906 -0.7737 -0.2293
vn 0.3619 -0.0000 0.9322
vn -0.5906 0.7737 0.2293
vn -0.7212 -0.6336 0.2800
vn 0.7212 0.6336 -0.2800
vn -0.7613 -0.0000 0.6484
vn -0.4108 -0.7737 -0.4824
vn 0.7613 -0.0000 -0.6484
vn 0.4108 0.7737 0.4824
vn 0.5016 -0.6336 0.5890
vn -0.5016 0.6336 -0.5890
vt 0.875000 0.500000
vt 0.625000 0.750000
vt 0.625000 0.500000
vt 0.375000 1.000000
vt 0.375000 0.750000
vt 0.625000 0.000000
vt 0.375000 0.250000
vt 0.375000 0.000000
vt 0.375000 0.500000
vt 0.125000 0.750000
vt 0.125000 0.500000
vt 0.625000 0.250000
vt 0.000000 0.000000
vt 0.875000 0.750000
vt 0.625000 1.000000
s 0
usemtl Material
f 5/1/1 3/2/1 1/3/1
f 3/2/2 8/4/2 4/5/2
f 7/6/3 6/7/3 8/8/3
f 2/9/4 8/10/4 6/11/4
f 1/3/5 4/5/5 2/9/5
f 5/12/6 2/9/6 6/7/6
f 9/13/7 22/13/7 21/13/7
f 10/13/8 22/13/8 24/13/8
f 9/13/9 21/13/9 26/13/9
f 9/13/10 26/13/10 28/13/10
f 9/13/11 28/13/11 25/13/11
f 10/13/12 24/13/12 31/13/12
f 11/13/13 23/13/13 33/13/13
f 12/13/14 27/13/14 35/13/14
f 13/13/15 29/13/15 37/13/15
f 14/13/16 30/13/16 39/13/16
f 10/13/17 31/13/17 34/13/17
f 11/13/18 33/13/18 36/13/18
f 12/13/19 35/13/19 38/13/19
f 13/13/20 37/13/20 40/13/20
f 14/13/21 39/13/21 32/13/21
f 15/13/22 41/13/22 46/13/22
f 16/13/23 42/13/23 48/13/23
f 17/13/24 43/13/24 49/13/24
f 18/13/25 44/13/25 50/13/25
f 19/13/26 45/13/26 47/13/26
f 47/13/27 50/13/27 20/13/27
f 47/13/28 45/13/28 50/13/28
f 45/13/29 18/13/29 50/13/29
f 50/13/30 49/13/30 20/13/30
f 50/13/31 44/13/31 49/13/31
f 44/13/32 17/13/32 49/13/32
f 49/13/33 48/13/33 20/13/33
f 49/13/34 43/13/34 48/13/34
f 43/13/35 16/13/35 48/13/35
f 48/13/36 46/13/36 20/13/36
f 48/13/37 42/13/37 46/13/37
f 42/13/38 15/13/38 46/13/38
f 46/13/39 47/13/39 20/13/39
f 46/13/40 41/13/40 47/13/40
f 41/13/41 19/13/41 47/13/41
f 32/13/42 45/13/42 19/13/42
f 32/13/43 39/13/43 45/13/43
f 39/13/44 18/13/44 45/13/44
f 40/13/45 44/13/45 18/13/45
f 40/13/46 37/13/46 44/13/46
f 37/13/47 17/13/47 44/13/47
f 38/13/48 43/13/48 17/13/48
f 38/13/49 35/13/49 43/13/49
f 35/13/50 16/13/50 43/13/50
f 36/13/51 42/13/51 16/13/51
f 36/13/52 33/13/52 42/13/52
f 33/13/53 15/13/53 42/13/53
f 34/13/54 41/13/54 15/13/54
f 34/13/55 31/13/55 41/13/55
f 31/13/56 19/13/56 41/13/56
f 39/13/57 40/13/57 18/13/57
f 39/13/58 30/13/58 40/13/58
f 30/13/59 13/13/59 40/13/59
f 37/13/60 38/13/60 17/13/60
f 37/13/61 29/13/61 38/13/61
f 29/13/62 12/13/62 38/13/62
f 35/13/63 36/13/63 16/13/63
f 35/13/64 27/13/64 36/13/64
f 27/13/65 11/13/65 36/13/65
f 33/13/66 34/13/66 15/13/66
f 33/13/67 23/13/67 34/13/67
f 23/13/68 10/13/68 34/13/68
f 31/13/69 32/13/69 19/13/69
f 31/13/70 24/13/70 32/13/70
f 24/13/71 14/13/71 32/13/71
f 25/13/72 30/13/72 14/13/72
f 25/13/73 28/13/73 30/13/73
f 28/13/74 13/13/74 30/13/74
f 28/13/75 29/13/75 13/13/75
f 28/13/76 26/13/76 29/13/76
f 26/13/77 12/13/77 29/13/77
f 26/13/78 27/13/78 12/13/78
f 26/13/79 21/13/79 27/13/79
f 21/13/80 11/13/80 27/13/80
f 24/13/81 25/13/81 14/13/81
f 24/13/82 22/13/82 25/13/82
f 22/13/83 9/13/83 25/13/83
f 21/13/84 23/13/84 11/13/84
f 21/13/85 22/13/85 23/13/85
f 22/13/86 10/13/86 23/13/86
f 52/13/87 53/13/87 51/13/87
f 54/13/88 57/13/88 53/13/88
f 58/13/89 55/13/89 57/13/89
f 56/13/90 51/13/90 55/13/90
f 57/13/91 51/13/91 53/13/91
f 54/13/92 56/13/92 58/13/92
f 60/13/93 61/13/93 59/13/93
f 62/13/94 65/13/94 61/13/94
f 66/13/95 63/13/95 65/13/95
f 64/13/96 59/13/96 63/13/96
f 61/13/97 63/13/97 59/13/97
f 66/13/98 60/13/98 64/13/98
f 5/1/1 7/14/1 3/2/1
f 3/2/2 7/15/2 8/4/2
f 7/6/3 5/12/3 6/7/3
f 2/9/4 4/5/4 8/10/4
f 1/3/5 3/2/5 4/5/5
f 5/12/6 1/3/6 2/9/6
f 52/13/87 54/13/87 53/13/87
f 54/13/88 58/13/88 57/13/88
f 58/13/89 56/13/89 55/13/89
f 56/13/90 52/13/90 51/13/90
f 57/13/91 55/13/91 51/13/91
f 54/13/92 52/13/92 56/13/92
f 60/13/93 62/13/93 61/13/93
f 62/13/94 66/13/94 65/13/94
f 66/13/95 64/13/95 63/13/95
f 64/13/96 60/13/96 59/13/96
f 61/13/97 65/13/97 63/13/97
f 66/13/98 62/13/98 60/13/98
