# Blender 4.1.1
# www.blender.org
mtllib Player_Body.mtl
o body
v 0.000000 2.677341 0.000000
v -0.751658 3.415518 0.928232
v -1.115076 3.415518 -0.428031
v 0.062510 3.415524 -1.192771
v 1.153709 3.415518 -0.309129
v 0.650515 3.415518 1.001717
v -1.153708 4.609944 0.309129
v -0.650514 4.609943 -1.001716
v 0.751659 4.609943 -0.928232
v 1.115076 4.609944 0.428031
v -0.062510 4.609939 1.192771
v 0.000000 5.348122 0.000000
v -0.655420 2.876775 -0.251588
v -0.441811 2.876775 0.545597
v -1.097237 3.310666 0.294011
v -0.059451 3.310668 1.134391
v 0.382360 2.876775 0.588790
v 0.036743 2.876779 -0.701092
v -0.618680 3.310668 -0.952686
v 0.678128 2.876775 -0.181700
v 0.714873 3.310668 -0.882798
v 1.060494 3.310666 0.407092
v -0.478555 4.012731 1.246696
v 0.345619 4.012731 1.289890
v -1.333560 4.012731 -0.069889
v -1.119952 4.012731 0.727306
v -0.345619 4.012731 -1.289889
v -1.037793 4.012731 -0.840389
v 1.119952 4.012731 -0.727306
v 0.478555 4.012731 -1.246696
v 1.037793 4.012731 0.840389
v 1.333560 4.012731 0.069889
v -0.714873 4.714794 0.882798
v -1.060494 4.714796 -0.407092
v 0.059451 4.714794 -1.134390
v 1.097237 4.714796 -0.294011
v 0.618680 4.714794 0.952686
v -0.678128 5.148686 0.181700
v -0.036743 5.148683 0.701092
v -0.382360 5.148686 -0.588790
v 0.441811 5.148686 -0.545597
v 0.655420 5.148687 0.251588
vn -0.3200 -0.9435 0.0857
vn -0.3043 -0.6617 0.6852
vn -0.1804 -0.9435 -0.2779
vn 0.2085 -0.9435 -0.2575
vn 0.3093 -0.9435 0.1187
vn -0.3150 -0.3304 0.8897
vn -0.9435 -0.3304 -0.0247
vn -0.2681 -0.3304 -0.9050
vn 0.7778 -0.3304 -0.5346
vn 0.7488 -0.3304 0.5746
vn -0.6243 -0.1256 0.7710
vn -0.9262 -0.1256 -0.3555
vn 0.0519 -0.1256 -0.9907
vn 0.9583 -0.1256 -0.2568
vn 0.5403 -0.1256 0.8320
vn -0.6490 0.6617 0.3755
vn -0.5577 0.6617 -0.5012
vn 0.3043 0.6617 -0.6852
vn 0.7457 0.6617 0.0777
vn 0.1566 0.6617 0.7332
vn 0.1804 0.9435 0.2779
vn 0.3306 0.7947 0.5091
vn 0.6062 0.6617 0.4413
vn 0.3200 0.9435 -0.0858
vn 0.5864 0.7947 -0.1571
vn 0.6070 0.6617 -0.4401
vn 0.0173 0.9435 -0.3309
vn 0.0318 0.7947 -0.6062
vn -0.2310 0.6617 -0.7133
vn -0.3093 0.9435 -0.1187
vn -0.5667 0.7947 -0.2176
vn -0.7498 0.6617 -0.0007
vn -0.2085 0.9435 0.2575
vn -0.3820 0.7947 0.4718
vn -0.2324 0.6617 0.7129
vn 0.2681 0.3304 0.9050
vn 0.5350 0.1876 0.8238
vn 0.7177 0.3304 0.6130
vn 0.9435 0.3304 0.0247
vn 0.9488 0.1876 -0.2542
vn 0.8048 0.3304 -0.4931
vn 0.3150 0.3304 -0.8897
vn 0.0514 0.1876 -0.9809
vn -0.2203 0.3304 -0.9178
vn -0.7488 0.3304 -0.5746
vn -0.9170 0.1876 -0.3520
vn -0.9409 0.3304 -0.0741
vn -0.7778 0.3304 0.5346
vn -0.6181 0.1876 0.7634
vn -0.3612 0.3304 0.8720
vn 0.9262 0.1256 0.3555
vn 0.9170 -0.1876 0.3520
vn 0.9409 -0.3304 0.0741
vn 0.6243 0.1256 -0.7710
vn 0.6181 -0.1876 -0.7634
vn 0.3612 -0.3304 -0.8720
vn -0.5403 0.1256 -0.8320
vn -0.5350 -0.1876 -0.8238
vn -0.7177 -0.3304 -0.6130
vn -0.9583 0.1256 0.2568
vn -0.9488 -0.1876 0.2542
vn -0.8048 -0.3304 0.4931
vn -0.0519 0.1256 0.9907
vn -0.0514 -0.1876 0.9809
vn 0.2203 -0.3304 0.9178
vn 0.5577 -0.6617 0.5012
vn 0.5667 -0.7947 0.2176
vn 0.7498 -0.6617 0.0007
vn 0.6490 -0.6617 -0.3755
vn 0.3820 -0.7947 -0.4718
vn 0.2324 -0.6617 -0.7129
vn -0.1566 -0.6617 -0.7332
vn -0.3306 -0.7947 -0.5091
vn -0.6062 -0.6617 -0.4413
vn 0.2310 -0.6617 0.7133
vn -0.0318 -0.7947 0.6062
vn -0.0173 -0.9435 0.3309
vn -0.7457 -0.6617 -0.0777
vn -0.5864 -0.7947 0.1571
vn -0.6070 -0.6617 0.4401
vt 0.000000 0.000000
s 0
usemtl Material.001
f 1/1/1 14/1/1 13/1/1
f 2/1/2 14/1/2 16/1/2
f 1/1/3 13/1/3 18/1/3
f 1/1/4 18/1/4 20/1/4
f 1/1/5 20/1/5 17/1/5
f 2/1/6 16/1/6 23/1/6
f 3/1/7 15/1/7 25/1/7
f 4/1/8 19/1/8 27/1/8
f 5/1/9 21/1/9 29/1/9
f 6/1/10 22/1/10 31/1/10
f 2/1/11 23/1/11 26/1/11
f 3/1/12 25/1/12 28/1/12
f 4/1/13 27/1/13 30/1/13
f 5/1/14 29/1/14 32/1/14
f 6/1/15 31/1/15 24/1/15
f 7/1/16 33/1/16 38/1/16
f 8/1/17 34/1/17 40/1/17
f 9/1/18 35/1/18 41/1/18
f 10/1/19 36/1/19 42/1/19
f 11/1/20 37/1/20 39/1/20
f 39/1/21 42/1/21 12/1/21
f 39/1/22 37/1/22 42/1/22
f 37/1/23 10/1/23 42/1/23
f 42/1/24 41/1/24 12/1/24
f 42/1/25 36/1/25 41/1/25
f 36/1/26 9/1/26 41/1/26
f 41/1/27 40/1/27 12/1/27
f 41/1/28 35/1/28 40/1/28
f 35/1/29 8/1/29 40/1/29
f 40/1/30 38/1/30 12/1/30
f 40/1/31 34/1/31 38/1/31
f 34/1/32 7/1/32 38/1/32
f 38/1/33 39/1/33 12/1/33
f 38/1/34 33/1/34 39/1/34
f 33/1/35 11/1/35 39/1/35
f 24/1/36 37/1/36 11/1/36
f 24/1/37 31/1/37 37/1/37
f 31/1/38 10/1/38 37/1/38
f 32/1/39 36/1/39 10/1/39
f 32/1/40 29/1/40 36/1/40
f 29/1/41 9/1/41 36/1/41
f 30/1/42 35/1/42 9/1/42
f 30/1/43 27/1/43 35/1/43
f 27/1/44 8/1/44 35/1/44
f 28/1/45 34/1/45 8/1/45
f 28/1/46 25/1/46 34/1/46
f 25/1/47 7/1/47 34/1/47
f 26/1/48 33/1/48 7/1/48
f 26/1/49 23/1/49 33/1/49
f 23/1/50 11/1/50 33/1/50
f 31/1/51 32/1/51 10/1/51
f 31/1/52 22/1/52 32/1/52
f 22/1/53 5/1/53 32/1/53
f 29/1/54 30/1/54 9/1/54
f 29/1/55 21/1/55 30/1/55
f 21/1/56 4/1/56 30/1/56
f 27/1/57 28/1/57 8/1/57
f 27/1/58 19/1/58 28/1/58
f 19/1/59 3/1/59 28/1/59
f 25/1/60 26/1/60 7/1/60
f 25/1/61 15/1/61 26/1/61
f 15/1/62 2/1/62 26/1/62
f 23/1/63 24/1/63 11/1/63
f 23/1/64 16/1/64 24/1/64
f 16/1/65 6/1/65 24/1/65
f 17/1/66 22/1/66 6/1/66
f 17/1/67 20/1/67 22/1/67
f 20/1/68 5/1/68 22/1/68
f 20/1/69 21/1/69 5/1/69
f 20/1/70 18/1/70 21/1/70
f 18/1/71 4/1/71 21/1/71
f 18/1/72 19/1/72 4/1/72
f 18/1/73 13/1/73 19/1/73
f 13/1/74 3/1/74 19/1/74
f 16/1/75 17/1/75 6/1/75
f 16/1/76 14/1/76 17/1/76
f 14/1/77 1/1/77 17/1/77
f 13/1/78 15/1/78 3/1/78
f 13/1/79 14/1/79 15/1/79
f 14/1/80 2/1/80 15/1/80
