# Blender 4.1.1
# www.blender.org
mtllib Player_LeftArm.mtl
o leftArm
v 1.923795 -1.539411 2.206254
v 1.628017 -2.096458 1.858958
v 2.471943 -1.539411 1.739420
v 2.176165 -2.096458 1.392123
v 1.923795 -1.539411 2.206254
v 0.418885 0.361334 0.439218
v 1.628017 -2.096457 1.858958
v 0.123107 -0.195712 0.091922
v 2.471943 -1.539411 1.739420
v 0.967033 0.361334 -0.027616
v 2.176165 -2.096457 1.392123
v 0.671255 -0.195712 -0.374912
vn 0.5016 -0.6336 0.5890
vn -0.7613 -0.0000 0.6484
vn -0.4108 -0.7737 -0.4824
vn 0.7613 -0.0000 -0.6484
vn 0.4108 0.7737 0.4824
vn -0.5016 0.6336 -0.5890
vt 0.000000 0.000000
s 0
usemtl Material.001
f 2/1/1 4/1/1 3/1/1 1/1/1
usemtl Material.002
f 5/1/2 6/1/2 8/1/2 7/1/2
f 7/1/3 8/1/3 12/1/3 11/1/3
f 11/1/4 12/1/4 10/1/4 9/1/4
f 9/1/5 10/1/5 6/1/5 5/1/5
f 12/1/6 8/1/6 6/1/6 10/1/6
