# Blender 4.1.1
# www.blender.org
mtllib Player_Head.mtl
o head
v -0.649465 7.372422 -1.106116
v -1.326730 6.584896 0.081555
v 0.536229 6.331564 -1.120155
v -0.141037 5.544039 0.067517
v 0.141037 8.258914 -0.067517
v -0.536229 7.471388 1.120155
v 1.326730 7.218057 -0.081555
v 0.649465 6.430531 1.106116
vn 0.4292 0.4991 -0.7527
vn 0.7515 -0.6597 -0.0089
vn 0.5010 0.5619 0.6583
vn -0.4292 -0.4991 0.7527
vn -0.5010 -0.5619 -0.6583
vn -0.7515 0.6597 0.0089
vt 0.875000 0.500000
vt 0.625000 0.750000
vt 0.625000 0.500000
vt 0.375000 0.750000
vt 0.625000 1.000000
vt 0.375000 1.000000
vt 0.625000 0.000000
vt 0.375000 0.250000
vt 0.375000 0.000000
vt 0.125000 0.500000
vt 0.125000 0.750000
vt 0.375000 0.500000
vt 0.875000 0.750000
vt 0.625000 0.250000
s 0
usemtl Material.001
f 5/1/1 3/2/1 1/3/1
f 4/4/2 7/5/2 8/6/2
f 7/7/3 6/8/3 8/9/3
f 6/10/4 4/4/4 8/11/4
f 1/3/5 4/4/5 2/12/5
f 6/8/6 1/3/6 2/12/6
f 5/1/1 7/13/1 3/2/1
f 4/4/2 3/2/2 7/5/2
f 7/7/3 5/14/3 6/8/3
f 6/10/4 2/12/4 4/4/4
f 1/3/5 3/2/5 4/4/5
f 6/8/6 5/14/6 1/3/6
